<?xml version="1.0" standalone="no"?>
<!DOCTYPE svg PUBLIC "-//W3C//DTD SVG 20010904//EN"
 "http://www.w3.org/TR/2001/REC-SVG-20010904/DTD/svg10.dtd">
<svg version="1.0" xmlns="http://www.w3.org/2000/svg"
 width="3168.000000pt" height="1344.000000pt" viewBox="0 0 3168.000000 1344.000000"
 preserveAspectRatio="xMidYMid meet">

<g transform="translate(0.000000,1344.000000) scale(0.100000,-0.100000)"
fill="#000000" stroke="none">
<path d="M0 6720 l0 -6720 15840 0 15840 0 0 6720 0 6720 -15840 0 -15840 0 0
-6720z m6380 2506 c237 -54 380 -132 577 -313 152 -140 256 -322 332 -584 56
-195 110 -289 230 -401 53 -51 97 -80 173 -118 156 -75 232 -93 415 -94 150
-1 153 -2 179 -27 79 -79 11 -226 -159 -339 -31 -21 -83 -48 -115 -60 -120
-46 -169 -50 -619 -54 -235 -2 -429 -4 -430 -5 -12 -7 -33 -35 -33 -45 0 -8
32 -44 72 -82 283 -272 420 -449 533 -688 128 -270 184 -499 185 -745 0 -275
-93 -578 -256 -829 -173 -265 -549 -538 -859 -622 -174 -48 -233 -52 -765 -54
-278 -1 -559 1 -626 6 -382 23 -746 175 -1105 459 -125 99 -373 359 -441 461
-153 230 -228 369 -307 568 -66 164 -124 360 -107 360 3 0 34 -25 68 -56 82
-73 125 -102 240 -163 187 -98 458 -172 698 -191 138 -10 329 0 373 20 33 16
35 43 5 65 -33 22 -236 87 -428 135 -785 198 -1028 412 -1047 920 -6 165 16
328 62 467 55 164 81 170 210 47 216 -207 332 -291 512 -372 251 -113 457
-144 888 -135 341 7 466 5 585 -8 198 -22 449 -106 615 -204 243 -143 459
-403 553 -665 73 -201 97 -360 88 -575 -4 -88 -9 -180 -12 -205 l-5 -45 26 30
c43 50 104 185 131 290 21 79 26 125 26 220 1 196 -38 358 -136 560 -101 208
-216 346 -403 487 -170 128 -236 160 -463 223 -200 56 -311 111 -465 230 -403
313 -563 842 -403 1335 47 147 103 249 205 372 124 150 304 289 461 357 85 37
248 80 347 92 110 12 278 2 395 -25z m10210 -2435 c0 -1229 0 -1239 -20 -1244
-11 -3 -132 -6 -270 -6 l-250 -2 0 116 c0 63 -1 115 -2 115 -2 0 -37 -33 -78
-73 -130 -124 -270 -180 -455 -179 -158 0 -279 35 -409 118 -87 56 -144 110
-201 189 -249 349 -256 923 -15 1275 144 209 416 342 670 327 163 -9 289 -64
415 -179 34 -32 65 -54 69 -51 3 3 6 192 6 420 l0 413 270 0 270 0 0 -1239z
m2168 -3 l-3 -1243 -265 0 -265 0 -3 113 c-1 61 -6 112 -10 112 -4 -1 -20 -18
-37 -38 -106 -135 -288 -213 -492 -213 -216 1 -385 71 -534 223 -219 222 -316
620 -241 988 25 124 43 175 97 279 87 168 179 257 350 341 278 136 582 96 792
-103 l74 -71 -1 210 c-1 115 -1 307 -1 427 l1 217 270 0 270 0 -2 -1242z m943
1235 c0 -5 1 -561 2 -1236 2 -1092 1 -1230 -13 -1236 -8 -4 -132 -7 -274 -7
l-260 1 0 1242 -1 1243 273 0 c149 0 272 -3 273 -7z m-7301 -127 c0 -6 -27
-114 -61 -241 -33 -126 -98 -378 -144 -560 -263 -1035 -391 -1520 -408 -1543
-8 -9 -80 -12 -325 -10 l-316 3 -73 290 c-62 249 -117 472 -168 695 -15 64
-48 206 -96 407 -18 79 -36 139 -40 135 -3 -4 -25 -90 -49 -192 -60 -262 -150
-632 -244 -1010 l-81 -325 -324 0 -324 0 -47 185 c-26 102 -65 246 -85 320
-50 179 -130 487 -269 1035 -63 248 -135 529 -160 627 -25 97 -46 181 -46 187
0 8 89 11 294 11 331 0 298 8 311 -80 4 -25 18 -92 31 -150 14 -58 54 -242 89
-410 35 -168 91 -431 125 -585 33 -154 68 -315 77 -358 9 -42 18 -75 21 -73 2
3 8 22 12 43 22 111 99 444 164 713 41 168 84 350 96 405 36 165 81 356 99
425 l18 65 301 3 301 2 10 -38 c6 -21 21 -85 35 -142 13 -58 76 -330 141 -605
64 -275 135 -584 158 -687 23 -104 44 -188 47 -188 3 0 15 51 28 113 13 61 36
175 53 252 16 77 51 250 79 385 27 135 63 310 80 390 17 80 48 228 69 330 l38
185 279 5 c154 3 285 3 292 1 6 -2 12 -8 12 -15z m11008 -13 c27 -72 67 -186
137 -388 42 -121 127 -364 190 -540 63 -176 155 -437 205 -580 50 -143 119
-336 152 -430 33 -93 78 -220 98 -282 l38 -111 -27 -4 c-14 -2 -145 -3 -290
-3 l-265 0 -69 208 -69 207 -436 -2 -437 -3 -67 -199 c-37 -110 -70 -202 -74
-205 -9 -10 -538 -12 -553 -2 -11 7 2 54 69 242 102 288 125 356 312 894 81
237 184 531 227 655 44 124 98 279 121 345 23 66 51 144 62 173 l19 52 324 0
323 0 10 -27z m-9850 -487 c109 -38 169 -74 249 -150 40 -38 73 -62 74 -55 4
108 8 196 8 202 1 4 119 6 264 5 l262 -3 0 -925 0 -925 -235 -3 c-129 -1 -250
0 -267 3 l-33 6 0 109 c0 61 -4 110 -8 110 -4 0 -25 -20 -45 -45 -43 -51 -144
-126 -209 -155 -121 -53 -323 -67 -466 -31 -314 78 -556 381 -603 755 -24 200
0 446 61 609 81 216 285 418 491 486 106 35 147 40 269 36 91 -2 130 -8 188
-29z m7517 20 c235 -41 434 -158 550 -320 88 -125 136 -249 161 -420 17 -115
14 -300 -5 -319 -10 -10 -164 -14 -783 -16 -524 -1 -473 11 -438 -104 30 -95
92 -174 169 -216 52 -28 77 -34 145 -38 130 -8 222 32 281 125 l27 42 96 0
c54 0 176 3 272 6 104 3 181 1 189 -4 11 -8 11 -18 -4 -63 -60 -184 -186 -349
-334 -438 -163 -99 -319 -136 -536 -128 -167 6 -269 32 -410 105 -74 39 -108
65 -195 152 -86 86 -113 121 -152 195 -83 159 -119 327 -113 525 9 287 98 507
280 687 72 71 98 89 196 137 199 96 404 127 604 92z m4649 -7 c335 -78 558
-357 613 -769 27 -203 2 -436 -66 -609 -58 -145 -173 -298 -280 -370 -156
-106 -251 -135 -451 -135 -126 -1 -154 2 -211 22 -92 32 -178 86 -253 160 -35
34 -66 62 -69 62 -3 0 -6 -237 -6 -527 l1 -528 -267 -1 c-146 0 -268 3 -271 7
-4 6 -8 2539 -5 2657 l1 22 268 -2 267 -3 3 -107 c1 -60 4 -108 6 -108 2 0 31
26 64 58 175 167 408 228 656 171z m2152 1 c170 -43 279 -102 379 -205 171
-175 265 -436 265 -731 0 -184 -32 -334 -106 -493 -111 -238 -288 -390 -514
-442 -135 -31 -301 -27 -416 12 -97 32 -219 117 -265 184 -13 19 -27 35 -31
35 -4 0 -9 -237 -10 -526 l-3 -527 -265 -1 -265 -1 -3 1336 -2 1336 32 5 c18
3 139 6 270 7 276 3 254 14 243 -129 -4 -48 -3 -90 2 -93 4 -2 21 12 38 32 70
88 214 177 330 205 89 21 227 20 321 -4z m2719 -5877 c32 -88 71 -150 141
-223 70 -73 145 -122 237 -155 34 -13 62 -28 62 -35 0 -7 -28 -22 -62 -35 -92
-33 -167 -82 -237 -155 -71 -73 -109 -135 -142 -224 -12 -33 -27 -61 -34 -61
-7 0 -22 28 -34 61 -33 89 -71 151 -142 224 -70 73 -145 122 -237 155 -34 13
-62 28 -62 35 0 7 28 22 61 34 86 32 150 71 218 135 87 83 131 154 181 299 9
26 28 6 50 -55z"/>
<path d="M6350 8481 c-135 -44 -212 -150 -206 -283 5 -100 94 -219 184 -246
62 -19 150 -15 198 9 51 24 109 86 135 143 39 86 18 228 -44 295 -55 58 -201
104 -267 82z"/>
<path d="M15523 6929 c-106 -42 -198 -155 -238 -293 -26 -87 -17 -267 17 -357
81 -217 281 -322 483 -251 74 26 167 117 209 206 60 126 71 244 36 380 -25 98
-59 161 -123 226 -76 78 -133 103 -242 107 -73 2 -100 -1 -142 -18z"/>
<path d="M17672 6914 c-127 -63 -191 -156 -230 -332 -13 -61 -14 -88 -5 -160
26 -200 119 -335 271 -393 82 -30 205 -24 281 15 106 55 193 175 220 304 16
75 14 208 -4 277 -23 88 -72 170 -136 230 -76 69 -142 95 -248 95 -70 0 -86
-4 -149 -36z"/>
<path d="M23060 7266 c0 -10 -58 -196 -130 -414 -71 -218 -130 -404 -130 -414
0 -17 17 -18 276 -18 l276 0 -7 33 c-4 17 -34 109 -67 202 -32 94 -90 269
-129 390 -66 207 -89 264 -89 221z"/>
<path d="M13360 6933 c-107 -38 -193 -131 -238 -256 -23 -63 -27 -87 -26 -192
0 -105 3 -129 26 -192 56 -153 149 -246 277 -279 126 -32 260 12 354 116 102
114 143 326 97 501 -36 140 -115 241 -227 291 -64 29 -199 35 -263 11z"/>
<path d="M20817 6980 c-59 -15 -129 -55 -169 -97 -42 -44 -98 -155 -98 -195
l0 -28 350 0 351 0 -7 38 c-19 108 -92 207 -191 256 -58 29 -172 42 -236 26z"/>
<path d="M25303 6935 c-216 -60 -336 -314 -279 -586 20 -94 65 -175 128 -235
126 -120 265 -141 415 -65 146 74 223 226 223 441 0 119 -23 201 -80 290 -87
136 -252 199 -407 155z"/>
<path d="M27475 6937 c-88 -30 -173 -93 -215 -162 -66 -108 -97 -304 -66 -423
53 -200 159 -316 317 -342 123 -21 236 17 321 108 95 101 133 222 125 392 -10
203 -82 332 -227 405 -63 32 -191 43 -255 22z"/>
</g>
</svg>
